<?xml version="1.0" encoding="UTF-8"?>
<svg width="25px" height="29px" viewBox="0 0 25 29" version="1.1" xmlns="http://www.w3.org/2000/svg" xmlns:xlink="http://www.w3.org/1999/xlink">
    <title>编组</title>
    <g id="Main" stroke="none" stroke-width="1" fill="none" fill-rule="evenodd">
        <g id="编组" transform="translate(12.753078, 14.710891) rotate(-81.000000) translate(-12.753078, -14.710891) translate(0.217910, 4.337492)" fill="#FFFFFF" fill-rule="nonzero">
            <path d="M8.97022991,5.92928341 L18.9496197,4.36450852 C21.1273007,4.02304669 23.1708003,5.50771283 23.5190235,7.68432295 L24.4550077,13.5348012 C24.797457,15.6753206 23.3725306,17.6990831 21.2418666,18.0982892 L11.2100003,19.9778828 C9.03864485,20.3847129 6.9486125,18.9542826 6.54178235,16.7829272 C6.53125288,16.7267287 6.52192958,16.6703109 6.51381887,16.6137128 L5.63031127,10.4484158 C5.31985665,8.28199988 6.80810057,6.26830672 8.97022991,5.92928341 Z" id="矩形备份-3" stroke-opacity="0.212685752" stroke="#FFFFFF" fill-opacity="0.1"></path>
            <path d="M6.6819843,4.26677566 L16.661374,2.70200077 C18.8390551,2.36053894 20.8825547,3.84520508 21.2307779,6.0218152 L22.1667621,11.8722935 C22.5092114,14.0128128 21.084285,16.0365754 18.953621,16.4357815 L8.92175466,18.315375 C6.75039924,18.7222052 4.66036689,17.2917748 4.25353674,15.1204194 C4.24300727,15.0642209 4.23368397,15.0078032 4.22557326,14.951205 L3.34206566,8.78590807 C3.03161104,6.61949213 4.51985496,4.60579897 6.6819843,4.26677566 Z" id="矩形备份-6" stroke-opacity="0.399393575" stroke="#FFFFFF" fill-opacity="0.1"></path>
            <path d="M3.87406061,2.40718991 L13.5897473,0.702862514 C15.7656611,0.32116335 17.8390161,1.7756617 18.2207153,3.9515755 C18.2245939,3.9736863 18.2282864,3.99582937 18.2317923,4.01800235 L19.3752994,11.2501099 C19.7181071,13.431659 18.2301211,15.4796969 16.0494113,15.8278041 L6.30859765,17.3732233 C4.12707705,17.721458 2.07772075,16.2333367 1.73156152,14.0514868 C1.73145173,14.0507948 1.73134212,14.0501028 1.73330834,14.0490825 L0.614270579,6.97173099 C0.273358205,4.81563154 1.72400615,2.78435282 3.87406061,2.40718991 Z" id="矩形备份-5" stroke-opacity="0.738936844" stroke="#FFFFFF" fill-opacity="0.296274038"></path>
            <path d="M1.04352286,6.63910954 L6.55221725,9.05333144 C6.79982773,8.0273825 7.69614446,7.267396 8.76393299,7.267396 C10.0229157,7.267396 11.0435229,8.32390917 11.0435229,9.62718422 C11.0435229,10.9304593 10.0229157,11.9869725 8.76393299,11.9869725 C7.96641333,11.9869725 7.26454809,11.563019 6.85717563,10.9209458 L2.25998763,14.6391095 L1.04352286,6.63910954 Z" id="形状结合" fill-opacity="0.749180507"></path>
        </g>
    </g>
</svg>