<?xml version="1.0" encoding="UTF-8"?>
<svg width="47px" height="47px" viewBox="0 0 47 47" version="1.1" xmlns="http://www.w3.org/2000/svg" xmlns:xlink="http://www.w3.org/1999/xlink">
    <title>B_code</title>
    <g id="Main" stroke="none" stroke-width="1" fill="none" fill-rule="evenodd">
        <g id="桌面端" transform="translate(-150.000000, -1486.000000)">
            <g id="B_code" transform="translate(150.000000, 1486.000000)">
                <circle id="椭圆形备份-14" fill-opacity="0.3" fill="#FFFFFF" fill-rule="nonzero" cx="23.5" cy="23.5" r="23.5"></circle>
                <g id="code备份-3" transform="translate(15.000000, 13.000000)">
                    <path d="M12.9964908,0.304501203 L16.7450095,4.93499258 C16.9065563,5.13449557 17,5.40749091 17,5.68049905 L17,19.9500179 C17,20.5274121 16.617567,21 16.1500317,21 L0.85,21 C0.382496304,21 0,20.5274121 0,19.9500179 L0,1.04999488 C0,0.472498336 0.382496304,0 0.85,0 L12.401513,0 C12.6225048,0 12.8434965,0.115504428 12.9964908,0.304501203 Z" id="路径" fill-opacity="0.3" fill="#FFFFFF" fill-rule="nonzero"></path>
                    <g id="编组" transform="translate(2.300000, 6.000000)" stroke="#FFFFFF" stroke-linecap="round" stroke-linejoin="round" stroke-opacity="0.6">
                        <polyline id="路径" points="9.81818182 8.18181818 12.2727273 5.3181411 9.81818182 2.45454545"></polyline>
                        <polyline id="路径" points="2.45454545 8.18181818 0 5.3181411 2.45454545 2.45454545"></polyline>
                        <line x1="4.90909091" y1="9" x2="8.18181818" y2="0" id="路径"></line>
                    </g>
                </g>
            </g>
        </g>
    </g>
</svg>