<?xml version="1.0" encoding="UTF-8"?>
<svg width="25px" height="22px" viewBox="0 0 25 22" version="1.1" xmlns="http://www.w3.org/2000/svg" xmlns:xlink="http://www.w3.org/1999/xlink">
    <title>编组 3</title>
    <g id="Main" stroke="none" stroke-width="1" fill="none" fill-rule="evenodd">
        <g id="编组-3" transform="translate(0.614780, 0.059894)" fill="#FFFFFF" fill-rule="nonzero">
            <path d="M12.7440689,0.287131627 L12.7556398,0.298702568 L12.7556398,0.298702568 L23.798411,11.5236721 C24.185727,11.9173786 24.1805465,12.5505223 23.7868401,12.9378383 C23.5997959,13.1218465 23.3479248,13.2249697 23.0855424,13.2249697 L19.385,13.224 L19.3852195,20.9401064 C19.3852195,21.4923911 18.9375043,21.9401064 18.3852195,21.9401064 L6.3852195,21.9401064 C5.83293475,21.9401064 5.3852195,21.4923911 5.3852195,20.9401064 L5.385,13.224 L1,13.2249697 C0.44771525,13.2249697 -2.30926389e-14,12.7772545 -2.48689958e-14,12.2249697 C-2.48689958e-14,11.9625873 0.103123257,11.7107163 0.287131416,11.5236721 L11.3299026,0.298702568 C11.7172186,-0.0950038791 12.3503624,-0.100184366 12.7440689,0.287131627 Z" id="形状结合" fill-opacity="0.3"></path>
            <rect id="矩形" fill-opacity="0.6" x="9.3852195" y="13.9401064" width="6" height="8"></rect>
        </g>
    </g>
</svg>